<?xml version="1.0" encoding="UTF-8" standalone="no"?>
<!-- Created with Inkscape (http://www.inkscape.org/) -->

<svg
   width="2000"
   height="2000"
   viewBox="0 0 529.16665 529.16666"
   version="1.1"
   id="svg1"
   xml:space="preserve"
   inkscape:version="1.4.2 (f4327f4, 2025-05-13)"
   sodipodi:docname="Logo FaktuGo.svg"
   xmlns:inkscape="http://www.inkscape.org/namespaces/inkscape"
   xmlns:sodipodi="http://sodipodi.sourceforge.net/DTD/sodipodi-0.dtd"
   xmlns="http://www.w3.org/2000/svg"
   xmlns:svg="http://www.w3.org/2000/svg"><sodipodi:namedview
     id="namedview1"
     pagecolor="#ffffff"
     bordercolor="#000000"
     borderopacity="0.25"
     inkscape:showpageshadow="2"
     inkscape:pageopacity="0.0"
     inkscape:pagecheckerboard="0"
     inkscape:deskcolor="#d1d1d1"
     inkscape:document-units="mm"
     inkscape:zoom="0.25417602"
     inkscape:cx="86.554192"
     inkscape:cy="914.72043"
     inkscape:window-width="1920"
     inkscape:window-height="1009"
     inkscape:window-x="-8"
     inkscape:window-y="-8"
     inkscape:window-maximized="1"
     inkscape:current-layer="layer1" /><defs
     id="defs1" /><g
     inkscape:label="Capa 1"
     inkscape:groupmode="layer"
     id="layer1"><path
       id="path1"
       style="fill:#ffffff;stroke-width:1.70829;fill-opacity:1"
       d="m 442.88511,133.86728 -2.40192,0.47336 c -1.32104,0.2603 -3.41451,0.90717 -4.65191,1.43712 l -2.24948,0.96325 -10.37404,9.59011 c -11.24597,10.39586 -55.00192,51.27208 -66.52462,62.14659 -12.50169,11.79847 -44.79538,41.93725 -70.60654,65.89521 -10.4224,9.67407 -26.1005,24.24712 -34.84026,32.38458 -8.73977,8.13746 -16.07908,14.79548 -16.30959,14.79548 -0.23051,0 -3.1588,-2.57749 -6.50762,-5.72781 -6.4149,-6.03467 -50.31675,-46.75903 -53.95071,-50.04604 -1.16708,-1.05566 -3.28905,-2.43947 -4.71547,-3.07475 l -2.59313,-1.15497 h -4.24418 -4.24367 l -2.69183,1.2144 -2.69131,1.21439 -12.9961,11.85406 -12.99611,11.85457 -0.90744,1.88516 c -0.4992,1.03683 -1.13169,2.8035 -1.40559,3.92637 l -0.49817,2.04174 0.47233,3.05769 c 0.25959,1.68172 1.02587,4.07415 1.70325,5.31648 l 1.23145,2.25877 21.76767,20.14554 c 60.9536,56.41221 76.09045,70.28442 77.38545,70.91919 0.77804,0.38139 2.5816,0.95143 4.00803,1.26659 10.27215,2.26962 6.64128,5.05016 66.31688,-50.79173 3.5951,-3.36413 15.34294,-14.3406 26.1059,-24.39231 10.76299,-10.05169 22.82998,-21.33608 26.81593,-25.07651 7.25244,-6.80573 16.92921,-15.85065 43.90275,-41.03729 13.69665,-12.78932 19.64403,-18.33744 63.1517,-58.9132 24.43885,-22.79194 25.20367,-23.81838 23.60838,-31.67403 -1.33917,-6.59446 -27.91267,-30.94751 -35.17718,-32.23783 z m 6.03788,100.03937 -4.13412,3.87987 c -2.27376,2.13385 -8.53635,7.96416 -13.91646,12.95631 l -9.78183,9.07697 9.14827,8.41757 9.14828,8.41758 -8.67905,8.00726 -8.67958,8.00675 v 25.73589 25.7359 l 1.29708,-0.86144 c 1.40309,-0.93188 71.73793,-65.92381 71.91861,-66.45538 0.0929,-0.27324 -32.44893,-30.50602 -42.91056,-39.86578 z" /><path
       id="path1-5"
       style="fill:#18a96f;stroke-width:1.70829;fill-opacity:1"
       d="m 91.102067,30.85238 -3.06493,0.437183 c -27.85576,3.97336 -48.90681,23.323541 -53.48666,49.165991 l -0.76739,4.332552 0.14107,181.743424 0.1416,181.74395 0.80925,3.03289 c 4.95381,18.55825 17.21826,33.08258 34.75292,41.15666 5.318,2.44874 7.00524,2.96982 15.34376,4.73925 l 4.716,1.00045 127.434593,0.0548 127.43409,0.0548 4.362,-0.68162 c 27.29205,-4.26605 49.27583,-25.72692 52.20664,-50.96484 l 0.48834,-4.20698 v -82.11592 c 0,-45.16372 -0.0693,-82.11592 -0.154,-82.11592 -0.1653,0 -6.38063,5.7523 -26.91618,24.91114 l -13.00231,12.13105 -0.004,63.30207 c -0.005,68.70138 0.10228,66.01836 -2.83756,71.5145 l -1.89704,3.54604 -2.70371,2.22002 c -3.04256,2.49826 -7.14288,4.44424 -10.86962,5.15834 l -2.50682,0.48007 -123.6307,-0.0227 -123.630703,-0.0222 -3.34346,-0.99374 c -7.28556,-2.16509 -12.91047,-7.70642 -15.66003,-15.42748 l -0.69401,-1.94924 -0.21911,-177.06051 -0.21911,-177.059993 0.57309,-3.12229 c 0.3666,-1.99694 1.26089,-4.354232 2.48047,-6.539652 l 1.90686,-3.417363 2.8913,-2.476334 c 3.30617,-2.83187 6.54993,-4.569627 10.21126,-5.470467 l 2.54403,-0.626319 77.197363,-0.03359 77.19787,-0.03359 0.14676,31.087508 0.14676,31.08751 1.08314,3.46594 c 4.72134,15.10978 17.10707,26.54934 32.48432,30.0023 l 3.1905,0.71675 38.07727,0.14315 38.07726,0.14366 0.005,5.94227 0.005,5.94227 17.85059,-16.46308 c 9.81782,-9.05469 18.06422,-16.85261 18.32549,-17.32917 l 0.47491,-0.86661 -1.33687,-2.59933 c -0.73548,-1.42967 -1.5513,-3.08727 -1.81281,-3.68298 -2.22974,-5.07907 -1.86647,-4.72151 -48.82854,-47.991901 -49.775,-45.86218 -50.90246,-46.826738 -58.7158,-50.204688 -1.4264,-0.61668 -3.41135,-1.479109 -4.41058,-1.916679 -1.51162,-0.66194 -5.7936,-1.996235 -7.61401,-2.372465 -0.25936,-0.05361 -2.10261,-0.410366 -4.09639,-0.792716 l -3.6251,-0.695048 -88.32588,-5.17e-4 z" /></g></svg>
