<?xml version="1.0" encoding="UTF-8" standalone="no"?>
<!-- Created with Inkscape (http://www.inkscape.org/) -->

<svg
   width="3600"
   height="1890"
   viewBox="0 0 952.49997 500.0625"
   version="1.1"
   id="svg1"
   xml:space="preserve"
   inkscape:version="1.4.2 (f4327f4, 2025-05-13)"
   sodipodi:docname="og-faktugo.svg"
   inkscape:export-filename="og-faktugo.png"
   inkscape:export-xdpi="96"
   inkscape:export-ydpi="96"
   xmlns:inkscape="http://www.inkscape.org/namespaces/inkscape"
   xmlns:sodipodi="http://sodipodi.sourceforge.net/DTD/sodipodi-0.dtd"
   xmlns="http://www.w3.org/2000/svg"
   xmlns:svg="http://www.w3.org/2000/svg"><sodipodi:namedview
     id="namedview1"
     pagecolor="#ffffff"
     bordercolor="#000000"
     borderopacity="0.25"
     inkscape:showpageshadow="2"
     inkscape:pageopacity="0.0"
     inkscape:pagecheckerboard="0"
     inkscape:deskcolor="#d1d1d1"
     inkscape:document-units="mm"
     inkscape:zoom="0.12708801"
     inkscape:cx="1184.2187"
     inkscape:cy="971.76752"
     inkscape:window-width="1920"
     inkscape:window-height="1009"
     inkscape:window-x="-8"
     inkscape:window-y="-8"
     inkscape:window-maximized="1"
     inkscape:current-layer="layer1" /><defs
     id="defs1" /><g
     inkscape:label="Capa 1"
     inkscape:groupmode="layer"
     id="layer1"><g
       id="g1"
       transform="matrix(1.15089,0,0,1.15089,247.87027,21.651564)"><path
         id="path1"
         style="fill:#224bcc;fill-opacity:1;stroke-width:1.30425"
         d="m 334.62122,98.637842 -1.83382,0.361403 c -1.0086,0.198735 -2.60693,0.69261 -3.55166,1.097215 l -1.71745,0.73543 -7.92041,7.3219 c -8.58612,7.93707 -41.9931,39.14542 -50.7905,47.44794 -9.54484,9.00794 -34.20056,32.01842 -53.90698,50.30995 -7.95733,7.386 -19.92731,18.51229 -26.59998,24.72511 -6.67268,6.21283 -12.27613,11.29612 -12.45212,11.29612 -0.17599,0 -2.41169,-1.96787 -4.96846,-4.37309 -4.89768,-4.60738 -38.41605,-35.69978 -41.19052,-38.20936 -0.89104,-0.80598 -2.51114,-1.8625 -3.60018,-2.34753 l -1.97982,-0.8818 h -3.24036 -3.23998 l -2.05517,0.92718 -2.05477,0.92716 -9.92232,9.05039 -9.922321,9.05078 -0.692817,1.43929 c -0.381131,0.7916 -0.864027,2.14043 -1.073145,2.99772 l -0.380345,1.55884 0.360616,2.33449 c 0.198193,1.28397 0.783236,3.11055 1.300405,4.05905 l 0.940192,1.72454 16.619275,15.3808 c 46.53711,43.06983 58.09385,53.66104 59.08257,54.14568 0.59402,0.29119 1.97101,0.7264 3.06006,0.96702 7.84263,1.73282 5.07052,3.85572 50.63189,-38.77868 2.74481,-2.56846 11.7141,-10.94882 19.93145,-18.62315 8.21737,-7.6743 17.43032,-16.28976 20.47353,-19.14551 5.53713,-5.19607 12.92519,-12.10173 33.51906,-31.33133 10.45718,-9.76444 14.99791,-14.00034 48.21533,-44.97929 18.65867,-17.40129 19.2426,-18.18496 18.02462,-24.18263 -1.02243,-5.03476 -21.31088,-23.62793 -26.85722,-24.61307 z m 4.60983,76.378478 -3.15633,2.96222 c -1.73598,1.62916 -6.51737,6.08051 -10.625,9.89194 l -7.46827,6.93012 6.98455,6.42668 6.98457,6.42669 -6.62632,6.11342 -6.62672,6.11303 v 19.64894 19.64895 l 0.9903,-0.65769 c 1.07124,-0.71148 54.77078,-50.33179 54.90872,-50.73763 0.0709,-0.20862 -24.77424,-23.29087 -32.76153,-30.4369 z" /><path
         id="path1-5"
         style="fill:#18a96f;fill-opacity:1;stroke-width:1.30425"
         d="m 66.040429,19.987594 -2.340025,0.333782 C 42.432971,23.354973 26.360827,38.128531 22.864184,57.858833 l -0.58589,3.307835 0.107704,138.758232 0.10811,138.75864 0.617849,2.31556 c 3.782156,14.16893 13.14587,25.25803 26.533306,31.42246 4.060209,1.86957 5.34839,2.26741 11.714718,3.61834 l 3.600591,0.76383 97.294298,0.0418 97.29392,0.0418 3.33031,-0.52041 c 20.83705,-3.25706 37.62132,-19.6421 39.85895,-38.91085 l 0.37284,-3.21196 V 271.5499 c 0,-34.48179 -0.0529,-62.69421 -0.11758,-62.69421 -0.1262,0 -4.87151,4.39179 -20.55008,19.01926 l -9.92706,9.26187 -0.003,48.33013 c -0.004,52.45242 0.0781,50.40397 -2.16643,54.60019 l -1.44836,2.70735 -2.06424,1.69495 c -2.32295,1.90738 -5.45348,3.3931 -8.29878,3.93831 l -1.91392,0.36652 -94.39009,-0.0173 -94.390086,-0.017 -2.552679,-0.7587 c -5.56241,-1.65301 -9.85694,-5.88373 -11.956186,-11.77864 L 52.802484,334.71452 52.635197,199.53161 52.46791,64.349108 52.905455,61.965289 c 0.279893,-1.524632 0.962669,-3.324388 1.893799,-4.992921 l 1.455858,-2.609103 2.207462,-1.890642 c 2.524208,-2.162088 5.000768,-3.488838 7.796135,-4.176615 l 1.942327,-0.478185 58.938964,-0.02564 58.93936,-0.02564 0.11205,23.734821 0.11204,23.734822 0.82697,2.646191 c 3.60466,11.536083 13.06097,20.270003 24.80126,22.906283 l 2.4359,0.54723 29.07139,0.10929 29.07139,0.10968 0.004,4.53683 0.004,4.53683 13.62865,-12.5693 c 7.49575,-6.91311 13.79174,-12.8667 13.99122,-13.23055 l 0.36258,-0.66164 -1.02068,-1.98455 c -0.56152,-1.09153 -1.18439,-2.357082 -1.38405,-2.811897 -1.70237,-3.87779 -1.42502,-3.604798 -37.27982,-36.641058 -38.00242,-35.01505 -38.86322,-35.751475 -44.82858,-38.330486 -1.08904,-0.470825 -2.60451,-1.129276 -3.36741,-1.463354 -1.1541,-0.505381 -4.42332,-1.524094 -5.81318,-1.81134 -0.19801,-0.04093 -1.60531,-0.313308 -3.12753,-0.605226 l -2.7677,-0.530658 -67.43542,-3.95e-4 z" /></g></g></svg>
